:FULLY-SPECIFIED
:FORCE-ALL-JOINTS-BE-3DOF
:DEGREES
306
root 9.15338 15.3866 -23.8369 14.8078 61.2184 19.0096
lfemur -16.3838 18.2732 -18.5151
ltibia 53.3101 0 0
lfoot -17.5435 -26.9077 0
ltoes 57.7063 0 0
rfemur -52.5676 -18.1186 36.4906
rtibia 56.6058 0 0
rfoot 10.8414 11.6397 0
rtoes 4.51085 0 0
lowerback 9.11845 -3.5165 -8.58158
upperback 4.91684 -5.17926 -4.06604
thorax 0.430073 -2.62277 0.979625
lowerneck -5.17177 -10.5577 -3.43628
upperneck -1.39752 -14.022 10.5585
head 1.55693 -6.88298 3.47751
lclavicle 3.73604e-14 7.79746e-15 0
lhumerus -41.7235 -41.3748 98.951
lradius 59.3626 0 0
lwrist 20.8256 0 0
lhand 15.7288 12.5575 0
lfingers 7.12502 0 0
lthumb 40.5327 37.584 0
rclavicle 3.73604e-14 7.79746e-15 0
rhumerus -36.6898 65.196 -70.5254
rradius 79.6777 0 0
rwrist 7.158 0 0
rhand 4.32368 -4.1536 0
rfingers 7.12502 0 0
rthumb 29.6735 -751.336 0
307
root 9.08218 15.4205 -23.8136 13.6531 59.0933 17.2836
lfemur -16.6099 18.9218 -18.349
ltibia 52.6993 0 0
lfoot -18.1891 -25.704 0
ltoes 57.6019 0 0
rfemur -54.742 -19.9293 37.584
rtibia 57.6657 0 0
rfoot 12.2597 15.6052 0
rtoes -3.39125 0 0
lowerback 9.44389 -3.3434 -8.52499
upperback 4.98033 -4.97832 -4.08334
thorax 0.29421 -2.51823 0.939644
lowerneck -5.41085 -10.3771 -2.94843
upperneck -2.12222 -13.7428 10.7241
head 1.31253 -6.75316 3.47331
lclavicle 4.58549e-14 4.25485e-15 0
lhumerus -42.1672 -42.1769 99.1915
lradius 59.0788 0 0
lwrist 20.5875 0 0
lhand 15.0933 12.0049 0
lfingers 7.12502 0 0
lthumb 39.9363 37.2244 0
rclavicle 4.58549e-14 4.25485e-15 0
rhumerus -29.084 67.4979 -63.4221
rradius 79.8162 0 0
rwrist 4.93391 0 0
rhand 8.3927 -3.34379 0
rfingers 7.12502 0 0
rthumb 33.5756 -750.042 0
308
root 9.01538 15.4539 -23.7834 12.6367 57.0925 15.7258
lfemur -16.7536 19.4795 -18.1579
ltibia 52.04 0 0
lfoot -18.7646 -24.5628 0
ltoes 57.5535 0 0
rfemur -56.62 -21.3857 38.1629
rtibia 58.5853 0 0
rfoot 13.3542 18.6988 0
rtoes -9.97024 0 0
lowerback 9.71995 -3.15559 -8.41971
upperback 5.02731 -4.75036 -4.08691
thorax 0.165763 -2.40012 0.880965
lowerneck -5.58636 -10.2526 -2.45409
upperneck -2.81055 -13.5409 10.8369
head 1.07005 -6.66483 3.45175
lclavicle 5.10504e-14 1.46181e-15 0
lhumerus -42.6926 -43.0657 99.6069
lradius 58.8473 0 0
lwrist 20.3519 0 0
lhand 14.5586 11.5225 0
lfingers 7.12502 0 0
lthumb 39.4345 36.9049 0
rclavicle 5.10504e-14 1.46181e-15 0
rhumerus -22.2778 68.365 -57.4177
rradius 79.8393 0 0
rwrist 2.5135 0 0
rhand 11.0297 -3.07137 0
rfingers 7.12502 0 0
rthumb 36.1023 -749.414 0
309
root 8.95906 15.4833 -23.7423 11.7781 55.3449 14.3951
lfemur -16.7654 19.9095 -17.9263
ltibia 51.3578 0 0
lfoot -19.2093 -23.5771 0
ltoes 57.616 0 0
rfemur -57.9538 -22.2722 37.9888
rtibia 59.2337 0 0
rfoot 13.8786 20.3628 0
rtoes -14.2127 0 0
lowerback 9.90836 -2.94871 -8.25837
upperback 5.04675 -4.48549 -4.0701
thorax 0.0553108 -2.26391 0.802785
lowerneck -5.66427 -10.2142 -1.97222
upperneck -3.41346 -13.4593 10.8753
head 0.842986 -6.6399 3.40836
lclavicle 5.08889e-14 0 0
lhumerus -43.3004 -44.0231 100.237
lradius 58.7077 0 0
lwrist 20.1567 0 0
lhand 14.2114 11.1762 0
lfingers 7.12502 0 0
lthumb 39.1088 36.665 0
rclavicle 5.08889e-14 0 0
rhumerus -17.0391 67.2029 -53.3766
rradius 79.73 0 0
rwrist -0.0758576 0 0
rhand 11.4369 -3.63621 0
rfingers 7.12502 0 0
rthumb 36.4879 -749.831 0
310
root 8.95291 15.4867 -23.7361 11.6868 55.1493 14.2509
lfemur -16.7508 19.9474 -17.8911
ltibia 51.265 0 0
lfoot -19.2552 -23.4835 0
ltoes 57.679 0 0
rfemur -58.0676 -22.3208 37.8779
rtibia 59.288 0 0
rfoot 13.8765 20.4131 0
rtoes -14.5005 0 0
lowerback 9.92499 -2.9186 -8.2303
upperback 5.04649 -4.44547 -4.06626
thorax 0.042036 -2.24341 0.789235
lowerneck -5.66205 -10.2204 -1.90918
upperneck -3.48366 -13.4641 10.8716
head 0.814459 -6.6449 3.39996
lclavicle 5.01846e-14 -1.72253e-17 0
lhumerus -43.3928 -44.163 100.348
lradius 58.7006 0 0
lwrist 20.137 0 0
lhand 14.1897 11.146 0
lfingers 7.12502 0 0
lthumb 39.0884 36.6416 0
rclavicle 5.01846e-14 -1.72253e-17 0
rhumerus -16.5361 66.7809 -53.0871
rradius 79.6937 0 0
rwrist -0.454665 0 0
rhand 11.2013 -3.82263 0
rfingers 7.12502 0 0
rthumb 36.2609 -750.024 0
311
root 8.93642 15.4962 -23.7186 11.4665 54.6336 13.8896
lfemur -16.6908 20.0246 -17.7867
ltibia 50.9904 0 0
lfoot -19.3815 -23.2896 0
ltoes 58.0092 0 0
rfemur -58.3401 -22.3851 37.4628
rtibia 59.4181 0 0
rfoot 13.7933 20.3817 0
rtoes -15.0724 0 0
lowerback 9.96976 -2.82798 -8.13994
upperback 5.0439 -4.32371 -4.05522
thorax 0.00288531 -2.18103 0.743719
lowerneck -5.63976 -10.2529 -1.72502
upperneck -3.67907 -13.498 10.8505
head 0.732198 -6.67008 3.37223
lclavicle 4.73553e-14 1.43375e-16 0
lhumerus -43.6811 -44.5975 100.709
lradius 58.6924 0 0
lwrist 20.0852 0 0
lhand 14.1541 11.0715 0
lfingers 7.12502 0 0
lthumb 39.0552 36.5789 0
rclavicle 4.73553e-14 1.43375e-16 0
rhumerus -15.2705 65.1944 -52.5188
rradius 79.5463 0 0
rwrist -1.63132 0 0
rhand 10.158 -4.5041 0
rfingers 7.12502 0 0
rthumb 35.2567 -750.754 0
